<svg xmlns="http://www.w3.org/2000/svg" width="32" height="32" viewBox="0 0 32 32" fill="none">
  <path d="M 22.851 9.186 C 18.464 4.799 11.84 4.31 8.057 8.093 C 4.274 11.877 4.763 18.5 9.149 22.886 C 13.536 27.274 20.159 27.762 23.942 23.979 C 27.725 20.196 27.236 13.572 22.851 9.186 Z M 16.037 20.302 C 17.805 20.302 19.308 19.089 19.854 17.401 C 19.902 17.251 20.041 17.148 20.199 17.148 L 22.086 17.148 C 22.248 17.148 22.372 17.29 22.354 17.451 C 21.938 21.149 19.803 22.401 16.037 22.401 C 11.817 22.401 9.644 20.828 9.644 16.001 C 9.644 11.173 11.817 9.601 16.037 9.601 C 19.803 9.601 21.938 10.852 22.354 14.551 C 22.372 14.712 22.248 14.853 22.086 14.853 L 20.199 14.853 C 20.041 14.853 19.902 14.751 19.854 14.6 C 19.308 12.912 17.806 11.699 16.037 11.699 C 13.809 11.699 12.002 13.625 12.002 16.001 C 12.002 18.377 13.809 20.302 16.037 20.302 Z M 16 0 C 5.436 0 0 3.931 0 16 C 0 28.069 5.437 32 16 32 C 26.563 32 32 28.07 32 16 C 32 3.93 26.564 0 16 0 Z M 16 28.578 C 7.697 28.578 3.422 25.488 3.422 16 C 3.422 6.512 7.696 3.422 16 3.422 C 24.304 3.422 28.578 6.512 28.578 16 C 28.578 25.488 24.303 28.578 16 28.578 Z" fill="currentColor" fill-rule="nonzero"/>
</svg>
